<?xml version="1.0" standalone="no"?>
<svg xmlns:xlink="http://www.w3.org/1999/xlink" id="wave" style="transform:rotate(0deg); transition: 0.3s" viewBox="0 0 1440 100" version="1.1" xmlns="http://www.w3.org/2000/svg"><defs><linearGradient id="sw-gradient-0" x1="0" x2="0" y1="1" y2="0"><stop stop-color="rgba(255, 238, 221, 1)" offset="0%"/><stop stop-color="rgba(255, 238, 221, 1)" offset="100%"/></linearGradient></defs><path style="transform:translate(0, 0px); opacity:1" fill="url(#sw-gradient-0)" d="M0,10L48,8.3C96,7,192,3,288,10C384,17,480,33,576,40C672,47,768,43,864,36.7C960,30,1056,20,1152,20C1248,20,1344,30,1440,33.3C1536,37,1632,33,1728,30C1824,27,1920,23,2016,31.7C2112,40,2208,60,2304,61.7C2400,63,2496,47,2592,46.7C2688,47,2784,63,2880,70C2976,77,3072,73,3168,68.3C3264,63,3360,57,3456,58.3C3552,60,3648,70,3744,75C3840,80,3936,80,4032,66.7C4128,53,4224,27,4320,13.3C4416,0,4512,0,4608,3.3C4704,7,4800,13,4896,18.3C4992,23,5088,27,5184,23.3C5280,20,5376,10,5472,8.3C5568,7,5664,13,5760,15C5856,17,5952,13,6048,18.3C6144,23,6240,37,6336,48.3C6432,60,6528,70,6624,65C6720,60,6816,40,6864,30L6912,20L6912,100L6864,100C6816,100,6720,100,6624,100C6528,100,6432,100,6336,100C6240,100,6144,100,6048,100C5952,100,5856,100,5760,100C5664,100,5568,100,5472,100C5376,100,5280,100,5184,100C5088,100,4992,100,4896,100C4800,100,4704,100,4608,100C4512,100,4416,100,4320,100C4224,100,4128,100,4032,100C3936,100,3840,100,3744,100C3648,100,3552,100,3456,100C3360,100,3264,100,3168,100C3072,100,2976,100,2880,100C2784,100,2688,100,2592,100C2496,100,2400,100,2304,100C2208,100,2112,100,2016,100C1920,100,1824,100,1728,100C1632,100,1536,100,1440,100C1344,100,1248,100,1152,100C1056,100,960,100,864,100C768,100,672,100,576,100C480,100,384,100,288,100C192,100,96,100,48,100L0,100Z"/></svg>