<?xml version="1.0" standalone="no"?>
<svg xmlns:xlink="http://www.w3.org/1999/xlink" id="wave" style="transform:rotate(0deg); transition: 0.3s" viewBox="0 0 1440 100" version="1.1" xmlns="http://www.w3.org/2000/svg"><defs><linearGradient id="sw-gradient-0" x1="0" x2="0" y1="1" y2="0"><stop stop-color="rgba(255, 238, 221, 1)" offset="0%"/><stop stop-color="rgba(255, 238, 221, 1)" offset="100%"/></linearGradient></defs><path style="transform:translate(0, 0px); opacity:1" fill="url(#sw-gradient-0)" d="M0,10L34.3,8.3C68.6,7,137,3,206,10C274.3,17,343,33,411,40C480,47,549,43,617,36.7C685.7,30,754,20,823,20C891.4,20,960,30,1029,33.3C1097.1,37,1166,33,1234,30C1302.9,27,1371,23,1440,31.7C1508.6,40,1577,60,1646,61.7C1714.3,63,1783,47,1851,46.7C1920,47,1989,63,2057,70C2125.7,77,2194,73,2263,68.3C2331.4,63,2400,57,2469,58.3C2537.1,60,2606,70,2674,75C2742.9,80,2811,80,2880,66.7C2948.6,53,3017,27,3086,13.3C3154.3,0,3223,0,3291,3.3C3360,7,3429,13,3497,18.3C3565.7,23,3634,27,3703,23.3C3771.4,20,3840,10,3909,8.3C3977.1,7,4046,13,4114,15C4182.9,17,4251,13,4320,18.3C4388.6,23,4457,37,4526,48.3C4594.3,60,4663,70,4731,65C4800,60,4869,40,4903,30L4937.1,20L4937.1,100L4902.9,100C4868.6,100,4800,100,4731,100C4662.9,100,4594,100,4526,100C4457.1,100,4389,100,4320,100C4251.4,100,4183,100,4114,100C4045.7,100,3977,100,3909,100C3840,100,3771,100,3703,100C3634.3,100,3566,100,3497,100C3428.6,100,3360,100,3291,100C3222.9,100,3154,100,3086,100C3017.1,100,2949,100,2880,100C2811.4,100,2743,100,2674,100C2605.7,100,2537,100,2469,100C2400,100,2331,100,2263,100C2194.3,100,2126,100,2057,100C1988.6,100,1920,100,1851,100C1782.9,100,1714,100,1646,100C1577.1,100,1509,100,1440,100C1371.4,100,1303,100,1234,100C1165.7,100,1097,100,1029,100C960,100,891,100,823,100C754.3,100,686,100,617,100C548.6,100,480,100,411,100C342.9,100,274,100,206,100C137.1,100,69,100,34,100L0,100Z"/></svg>