<?xml version="1.0" standalone="no"?>
<svg xmlns:xlink="http://www.w3.org/1999/xlink" id="wave" style="transform:rotate(0deg); transition: 0.3s" viewBox="0 0 1440 100" version="1.1" xmlns="http://www.w3.org/2000/svg"><defs><linearGradient id="sw-gradient-0" x1="0" x2="0" y1="1" y2="0"><stop stop-color="#fff8f2" offset="0%"/><stop stop-color="rgba(255, 238, 221, 1)" offset="100%"/></linearGradient></defs><path style="transform:translate(0, 0px); opacity:1" fill="url(#sw-gradient-0)" d="M0,10L80,8.3C160,7,320,3,480,10C640,17,800,33,960,40C1120,47,1280,43,1440,36.7C1600,30,1760,20,1920,20C2080,20,2240,30,2400,33.3C2560,37,2720,33,2880,30C3040,27,3200,23,3360,31.7C3520,40,3680,60,3840,61.7C4000,63,4160,47,4320,46.7C4480,47,4640,63,4800,70C4960,77,5120,73,5280,68.3C5440,63,5600,57,5760,58.3C5920,60,6080,70,6240,75C6400,80,6560,80,6720,66.7C6880,53,7040,27,7200,13.3C7360,0,7520,0,7680,3.3C7840,7,8000,13,8160,18.3C8320,23,8480,27,8640,23.3C8800,20,8960,10,9120,8.3C9280,7,9440,13,9600,15C9760,17,9920,13,10080,18.3C10240,23,10400,37,10560,48.3C10720,60,10880,70,11040,65C11200,60,11360,40,11440,30L11520,20L11520,100L11440,100C11360,100,11200,100,11040,100C10880,100,10720,100,10560,100C10400,100,10240,100,10080,100C9920,100,9760,100,9600,100C9440,100,9280,100,9120,100C8960,100,8800,100,8640,100C8480,100,8320,100,8160,100C8000,100,7840,100,7680,100C7520,100,7360,100,7200,100C7040,100,6880,100,6720,100C6560,100,6400,100,6240,100C6080,100,5920,100,5760,100C5600,100,5440,100,5280,100C5120,100,4960,100,4800,100C4640,100,4480,100,4320,100C4160,100,4000,100,3840,100C3680,100,3520,100,3360,100C3200,100,3040,100,2880,100C2720,100,2560,100,2400,100C2240,100,2080,100,1920,100C1760,100,1600,100,1440,100C1280,100,1120,100,960,100C800,100,640,100,480,100C320,100,160,100,80,100L0,100Z"/></svg>