<?xml version="1.0" standalone="no"?>
<svg xmlns:xlink="http://www.w3.org/1999/xlink" id="wave" style="transform:rotate(0deg); transition: 0.3s" viewBox="0 0 1440 100" version="1.1" xmlns="http://www.w3.org/2000/svg"><defs><linearGradient id="sw-gradient-0" x1="0" x2="0" y1="1" y2="0"><stop stop-color="rgba(0, 101, 108, 1)" offset="0%"/><stop stop-color="rgba(0, 101, 108, 1)" offset="100%"/></linearGradient></defs><path style="transform:translate(0, 0px); opacity:1" fill="url(#sw-gradient-0)" d="M0,10L60,8.3C120,7,240,3,360,10C480,17,600,33,720,40C840,47,960,43,1080,36.7C1200,30,1320,20,1440,20C1560,20,1680,30,1800,33.3C1920,37,2040,33,2160,30C2280,27,2400,23,2520,31.7C2640,40,2760,60,2880,61.7C3000,63,3120,47,3240,46.7C3360,47,3480,63,3600,70C3720,77,3840,73,3960,68.3C4080,63,4200,57,4320,58.3C4440,60,4560,70,4680,75C4800,80,4920,80,5040,66.7C5160,53,5280,27,5400,13.3C5520,0,5640,0,5760,3.3C5880,7,6000,13,6120,18.3C6240,23,6360,27,6480,23.3C6600,20,6720,10,6840,8.3C6960,7,7080,13,7200,15C7320,17,7440,13,7560,18.3C7680,23,7800,37,7920,48.3C8040,60,8160,70,8280,65C8400,60,8520,40,8580,30L8640,20L8640,100L8580,100C8520,100,8400,100,8280,100C8160,100,8040,100,7920,100C7800,100,7680,100,7560,100C7440,100,7320,100,7200,100C7080,100,6960,100,6840,100C6720,100,6600,100,6480,100C6360,100,6240,100,6120,100C6000,100,5880,100,5760,100C5640,100,5520,100,5400,100C5280,100,5160,100,5040,100C4920,100,4800,100,4680,100C4560,100,4440,100,4320,100C4200,100,4080,100,3960,100C3840,100,3720,100,3600,100C3480,100,3360,100,3240,100C3120,100,3000,100,2880,100C2760,100,2640,100,2520,100C2400,100,2280,100,2160,100C2040,100,1920,100,1800,100C1680,100,1560,100,1440,100C1320,100,1200,100,1080,100C960,100,840,100,720,100C600,100,480,100,360,100C240,100,120,100,60,100L0,100Z"/></svg>