<?xml version="1.0" standalone="no"?>
<svg xmlns:xlink="http://www.w3.org/1999/xlink" id="wave" style="transform:rotate(0deg); transition: 0.3s" viewBox="0 0 1440 100" version="1.1" xmlns="http://www.w3.org/2000/svg"><defs><linearGradient id="sw-gradient-0" x1="0" x2="0" y1="1" y2="0"><stop stop-color="rgba(0, 101, 108, 1)" offset="0%"/><stop stop-color="rgba(255, 238, 221, 1)" offset="100%"/></linearGradient></defs><path style="transform:translate(0, 0px); opacity:1" fill="url(#sw-gradient-0)" d="M0,50L48,53.3C96,57,192,63,288,55C384,47,480,23,576,21.7C672,20,768,40,864,55C960,70,1056,80,1152,73.3C1248,67,1344,43,1440,28.3C1536,13,1632,7,1728,15C1824,23,1920,47,2016,55C2112,63,2208,57,2304,56.7C2400,57,2496,63,2592,68.3C2688,73,2784,77,2880,68.3C2976,60,3072,40,3168,38.3C3264,37,3360,53,3456,63.3C3552,73,3648,77,3744,65C3840,53,3936,27,4032,25C4128,23,4224,47,4320,48.3C4416,50,4512,30,4608,31.7C4704,33,4800,57,4896,55C4992,53,5088,27,5184,26.7C5280,27,5376,53,5472,61.7C5568,70,5664,60,5760,48.3C5856,37,5952,23,6048,30C6144,37,6240,63,6336,70C6432,77,6528,63,6624,56.7C6720,50,6816,50,6864,50L6912,50L6912,100L6864,100C6816,100,6720,100,6624,100C6528,100,6432,100,6336,100C6240,100,6144,100,6048,100C5952,100,5856,100,5760,100C5664,100,5568,100,5472,100C5376,100,5280,100,5184,100C5088,100,4992,100,4896,100C4800,100,4704,100,4608,100C4512,100,4416,100,4320,100C4224,100,4128,100,4032,100C3936,100,3840,100,3744,100C3648,100,3552,100,3456,100C3360,100,3264,100,3168,100C3072,100,2976,100,2880,100C2784,100,2688,100,2592,100C2496,100,2400,100,2304,100C2208,100,2112,100,2016,100C1920,100,1824,100,1728,100C1632,100,1536,100,1440,100C1344,100,1248,100,1152,100C1056,100,960,100,864,100C768,100,672,100,576,100C480,100,384,100,288,100C192,100,96,100,48,100L0,100Z"/></svg>