<?xml version="1.0" standalone="no"?>
<svg xmlns:xlink="http://www.w3.org/1999/xlink" id="wave" style="transform:rotate(0deg); transition: 0.3s" viewBox="0 0 1440 100" version="1.1" xmlns="http://www.w3.org/2000/svg"><defs><linearGradient id="sw-gradient-0" x1="0" x2="0" y1="1" y2="0"><stop stop-color="rgba(0, 101, 108, 1)" offset="0%"/><stop stop-color="rgba(255, 238, 221, 1)" offset="100%"/></linearGradient></defs><path style="transform:translate(0, 0px); opacity:1" fill="url(#sw-gradient-0)" d="M0,50L60,53.3C120,57,240,63,360,55C480,47,600,23,720,21.7C840,20,960,40,1080,55C1200,70,1320,80,1440,73.3C1560,67,1680,43,1800,28.3C1920,13,2040,7,2160,15C2280,23,2400,47,2520,55C2640,63,2760,57,2880,56.7C3000,57,3120,63,3240,68.3C3360,73,3480,77,3600,68.3C3720,60,3840,40,3960,38.3C4080,37,4200,53,4320,63.3C4440,73,4560,77,4680,65C4800,53,4920,27,5040,25C5160,23,5280,47,5400,48.3C5520,50,5640,30,5760,31.7C5880,33,6000,57,6120,55C6240,53,6360,27,6480,26.7C6600,27,6720,53,6840,61.7C6960,70,7080,60,7200,48.3C7320,37,7440,23,7560,30C7680,37,7800,63,7920,70C8040,77,8160,63,8280,56.7C8400,50,8520,50,8580,50L8640,50L8640,100L8580,100C8520,100,8400,100,8280,100C8160,100,8040,100,7920,100C7800,100,7680,100,7560,100C7440,100,7320,100,7200,100C7080,100,6960,100,6840,100C6720,100,6600,100,6480,100C6360,100,6240,100,6120,100C6000,100,5880,100,5760,100C5640,100,5520,100,5400,100C5280,100,5160,100,5040,100C4920,100,4800,100,4680,100C4560,100,4440,100,4320,100C4200,100,4080,100,3960,100C3840,100,3720,100,3600,100C3480,100,3360,100,3240,100C3120,100,3000,100,2880,100C2760,100,2640,100,2520,100C2400,100,2280,100,2160,100C2040,100,1920,100,1800,100C1680,100,1560,100,1440,100C1320,100,1200,100,1080,100C960,100,840,100,720,100C600,100,480,100,360,100C240,100,120,100,60,100L0,100Z"/></svg>