<?xml version="1.0" standalone="no"?>
<svg xmlns:xlink="http://www.w3.org/1999/xlink" id="wave" style="transform:rotate(0deg); transition: 0.3s" viewBox="0 0 1440 100" version="1.1" xmlns="http://www.w3.org/2000/svg"><defs><linearGradient id="sw-gradient-0" x1="0" x2="0" y1="1" y2="0"><stop stop-color="rgba(255, 238, 221, 1)" offset="0%"/><stop stop-color="rgba(255, 238, 221, 1)" offset="100%"/></linearGradient></defs><path style="transform:translate(0, 0px); opacity:1" fill="url(#sw-gradient-0)" d="M0,50L80,53.3C160,57,320,63,480,55C640,47,800,23,960,21.7C1120,20,1280,40,1440,55C1600,70,1760,80,1920,73.3C2080,67,2240,43,2400,28.3C2560,13,2720,7,2880,15C3040,23,3200,47,3360,55C3520,63,3680,57,3840,56.7C4000,57,4160,63,4320,68.3C4480,73,4640,77,4800,68.3C4960,60,5120,40,5280,38.3C5440,37,5600,53,5760,63.3C5920,73,6080,77,6240,65C6400,53,6560,27,6720,25C6880,23,7040,47,7200,48.3C7360,50,7520,30,7680,31.7C7840,33,8000,57,8160,55C8320,53,8480,27,8640,26.7C8800,27,8960,53,9120,61.7C9280,70,9440,60,9600,48.3C9760,37,9920,23,10080,30C10240,37,10400,63,10560,70C10720,77,10880,63,11040,56.7C11200,50,11360,50,11440,50L11520,50L11520,100L11440,100C11360,100,11200,100,11040,100C10880,100,10720,100,10560,100C10400,100,10240,100,10080,100C9920,100,9760,100,9600,100C9440,100,9280,100,9120,100C8960,100,8800,100,8640,100C8480,100,8320,100,8160,100C8000,100,7840,100,7680,100C7520,100,7360,100,7200,100C7040,100,6880,100,6720,100C6560,100,6400,100,6240,100C6080,100,5920,100,5760,100C5600,100,5440,100,5280,100C5120,100,4960,100,4800,100C4640,100,4480,100,4320,100C4160,100,4000,100,3840,100C3680,100,3520,100,3360,100C3200,100,3040,100,2880,100C2720,100,2560,100,2400,100C2240,100,2080,100,1920,100C1760,100,1600,100,1440,100C1280,100,1120,100,960,100C800,100,640,100,480,100C320,100,160,100,80,100L0,100Z"/></svg>